<svg width="510" height="870" viewBox="0 0 510 870" fill="none" xmlns="http://www.w3.org/2000/svg">
<path opacity="0.1" d="M60 144C93.1371 144 120 117.137 120 84C120 50.8629 93.1371 24 60 24C26.8629 24 0 50.8629 0 84C0 117.137 26.8629 144 60 144Z"  fill-opacity="0.3"/>
<path opacity="0.1" d="M133 364C166.137 364 193 337.137 193 304C193 270.863 166.137 244 133 244C99.8629 244 73 270.863 73 304C73 337.137 99.8629 364 133 364Z"  fill-opacity="0.3"/>
<path opacity="0.15" d="M403.5 199C458.452 199 503 154.452 503 99.5C503 44.5477 458.452 0 403.5 0C348.548 0 304 44.5477 304 99.5C304 154.452 348.548 199 403.5 199Z"  fill-opacity="0.3"/>
<path opacity="0.15" d="M186.5 785C216.047 785 240 761.047 240 731.5C240 701.953 216.047 678 186.5 678C156.953 678 133 701.953 133 731.5C133 761.047 156.953 785 186.5 785Z"  fill-opacity="0.3"/>
<path opacity="0.1" d="M108 509C119.046 509 128 500.046 128 489C128 477.954 119.046 469 108 469C96.9543 469 88 477.954 88 489C88 500.046 96.9543 509 108 509Z"  fill-opacity="0.3"/>
<path opacity="0.1" d="M445.5 870C468.972 870 488 850.972 488 827.5C488 804.028 468.972 785 445.5 785C422.028 785 403 804.028 403 827.5C403 850.972 422.028 870 445.5 870Z"  fill-opacity="0.3"/>
<path opacity="0.1" d="M450 629C483.137 629 510 602.137 510 569C510 535.863 483.137 509 450 509C416.863 509 390 535.863 390 569C390 602.137 416.863 629 450 629Z"  fill-opacity="0.3"/>
</svg>
