<svg viewBox="0 0 24 24" fill="none" xmlns="http://www.w3.org/2000/svg">
<g clip-path="url(#clip0_403_3173)">
<path d="M11.9998 10.0002H10.9998C10.7346 10.0002 10.4802 10.1056 10.2927 10.2931C10.1052 10.4807 9.99982 10.735 9.99982 11.0002C9.99982 11.2655 10.1052 11.5198 10.2927 11.7074C10.4802 11.8949 10.7346 12.0002 10.9998 12.0002H11.9998V18.0002C11.9998 18.2655 12.1052 18.5198 12.2927 18.7074C12.4802 18.8949 12.7346 19.0002 12.9998 19.0002C13.265 19.0002 13.5194 18.8949 13.7069 18.7074C13.8945 18.5198 13.9998 18.2655 13.9998 18.0002V12.0002C13.9998 11.4698 13.7891 10.9611 13.414 10.586C13.039 10.211 12.5302 10.0002 11.9998 10.0002Z" />
<path d="M12 7.99963C12.8284 7.99963 13.5 7.32806 13.5 6.49963C13.5 5.67121 12.8284 4.99963 12 4.99963C11.1716 4.99963 10.5 5.67121 10.5 6.49963C10.5 7.32806 11.1716 7.99963 12 7.99963Z"/>
</g>
<defs>
<clipPath id="clip0_403_3173">
<rect width="24" height="24" fill="white"/>
</clipPath>
</defs>
</svg>
