<svg xmlns="http://www.w3.org/2000/svg" xmlns:xlink="http://www.w3.org/1999/xlink" version="1.1" x="0px" y="0px" viewBox="0 0 1024 1280" style="enable-background:new 0 0 1024 1024;" xml:space="preserve"><g><rect x="467.5" y="273.1" width="89.1" height="31.9" fill="#ae5333"/><path d="M741.5,188.2C680.2,126.9,598.7,93.1,512,93.1s-168.2,33.8-229.5,95.1S187.4,331,187.4,417.7   c0,58.4,16.9,121.6,50.2,187.8C264.1,658,300.9,712.6,347,767.7c78.4,93.7,157.9,157.5,158.7,158.2l6.3,5l6.2-5   c0.8-0.6,80.3-64.9,158.7-158.7c46.1-55.3,82.9-109.9,109.4-162.3c33.3-66.1,50.2-129.1,50.2-187.2   C836.6,331,802.8,249.5,741.5,188.2z M694.8,560.1c0,13.3-10.9,24.2-24.2,24.2H353.3c-13.3,0-24.2-10.8-24.2-24.2V415.7   c3.2,2.3,6.5,4.3,10,6c3.2,1.6,6.5,3,10,4.1c7,2.3,14.4,3.5,22.1,3.5h100.1v5.8c0,7.6,6.2,13.8,13.8,13.8h53.6   c7.6,0,13.8-6.2,13.8-13.8v-5.8h100.1c7.7,0,15.1-1.2,22.1-3.5c3.5-1.1,6.8-2.5,10-4.1c3.5-1.7,6.8-3.8,10-6V560.1z M694.8,359.3   c-0.5,9.5-4.2,18.3-10,25.1c-2.9,3.4-6.2,6.3-10,8.6c-6.4,4-14,6.3-22.1,6.3H552.6v-4.6c0-7.6-6.2-13.8-13.8-13.8h-53.6   c-7.6,0-13.8,6.2-13.8,13.8v4.6H371.3c-8.1,0-15.7-2.3-22.1-6.3c-3.8-2.3-7.1-5.2-10-8.6c-5.8-6.8-9.5-15.6-10-25.1v-30.1   c0-13.3,10.9-24.2,24.2-24.2h84.1v-36.2c0-14.2,11.5-25.7,25.7-25.7h97.6c14.2,0,25.7,11.5,25.7,25.7v36.2h84.1   c13.3,0,24.2,10.8,24.2,24.2V359.3z" fill="#ae5333" /></g></svg>