<svg width="757" height="194" viewBox="0 0 757 194" fill="none" xmlns="http://www.w3.org/2000/svg">
<path d="M60.9668 182.504L72.5792 194L85.6431 181.067L74.0306 169.57L60.9668 182.504Z" fill="#AE5333"/>
<path d="M82.7383 162.384L92.8993 173.881L129.188 136.518L133.197 131.226C136.314 127.111 138.826 122.57 140.655 117.742L142.252 113.525L142.296 113.35C143.231 109.649 143.703 105.846 143.703 102.029V97.8975C143.703 94.909 143.454 91.9254 142.958 88.9784C142.488 86.1871 141.798 83.4368 140.895 80.7542L139.349 76.1623L139.053 75.2834C137.324 70.1505 134.795 65.2527 131.626 60.8607C130.016 58.6292 128.218 56.4966 126.287 54.5358L72.5776 -0.000166074L17.4185 53.1702L11.6125 60.3549C8.72193 64.1704 6.34927 68.3513 4.55635 72.7894L4.35467 73.2884L1.45145 81.9105L1.13834 83.4616C0.381288 87.2085 5.45276e-05 91.0213 5.45276e-05 94.844C5.45276e-05 98.6662 0.381288 102.479 1.13834 106.226L1.45145 107.777L1.98968 109.908C3.56153 116.133 5.81509 122.165 8.7093 127.896L13.0639 135.081C15.9635 138.908 19.1311 142.524 22.5433 145.902L24.6764 148.014L27.5796 150.888C28.3872 151.688 29.6847 151.698 30.5045 150.911L76.9323 106.34L77.4547 105.823C78.0701 105.214 78.5826 104.509 78.9729 103.736L79.1872 103.312C79.6135 102.469 79.835 101.537 79.835 100.592C79.835 98.7023 79.3915 96.839 78.5397 95.1526L78.3836 94.844L77.8531 93.7932C77.2431 92.5855 76.4418 91.4846 75.4804 90.5327L74.029 89.0957H72.5776L29.031 133.644L25.0012 128.325C21.8954 124.225 19.3455 119.731 17.4185 114.962L15.8539 108.766C14.9651 105.246 14.5153 101.594 14.5153 97.9638C14.5153 95.9002 14.6633 93.819 14.9579 91.7765L15.0472 91.1584C15.6563 86.9374 16.9475 82.8435 18.8699 79.0366L21.7731 73.2884L24.6764 68.9775C26.6069 66.1104 28.8167 63.4413 31.2728 61.0096L71.1258 21.5555L72.5776 22.9924L110.318 60.3549L112.43 62.4465C114.887 64.8783 117.096 67.5474 119.027 70.4145L121.93 74.7253L123.382 77.5997C124.348 79.5131 125.177 81.4932 125.861 83.5252L126.285 84.7849L126.361 85.01C127.272 87.7156 127.736 90.5516 127.736 93.407V96.6274C127.736 100.22 127.378 103.803 126.667 107.324L126.285 109.214L124.289 115.143C123.685 116.936 122.953 118.684 122.1 120.374C121.021 122.51 119.752 124.544 118.306 126.452L118.04 126.803C116.764 128.488 115.37 130.079 113.869 131.565L82.7383 162.384Z" fill="#232429"/>
<path d="M103.058 31.6144L90.7086 19.3878L46.4482 61.7919L39.8791 69.3791C38.4547 71.0245 37.159 72.808 36.0311 74.669C34.2873 77.5461 32.9115 80.674 31.9785 83.9066C30.9851 87.3489 30.481 90.914 30.481 94.4967V96.2811V97.4802C30.481 100.493 30.9712 103.485 31.9325 106.34L33.5157 110.259C34.3942 112.433 35.4463 114.533 36.6618 116.539C38.3422 119.311 40.3259 121.888 42.5763 124.222L69.6727 152.325L110.15 114.925C112.153 113.074 113.575 110.68 114.243 108.036C114.527 106.91 114.671 105.753 114.671 104.591V104.369C114.671 101.886 114.075 99.4117 112.955 97.1951C112.174 95.6494 111.14 94.2229 109.91 93.0047L108.865 91.9697L69.6727 129.333L57.4584 117.241C54.9729 114.78 52.9016 111.934 51.3253 108.812L51.2495 108.662C49.9894 106.167 49.0708 103.515 48.5172 100.776C48.1067 98.7421 47.8996 96.6731 47.8996 94.5982V91.5632C47.8996 89.9246 48.1026 88.2923 48.5037 86.7033L48.5818 86.3938C49.0907 84.3785 49.9447 82.466 51.106 80.7412C51.8689 79.6083 52.7582 78.5662 53.7566 77.6341L103.058 31.6144Z" fill="#AE5333"/>
<path d="M196.476 155V38.6364H217.044V82.1591H217.897C218.957 80.0379 220.454 77.7841 222.385 75.3977C224.317 72.9735 226.931 70.9091 230.226 69.2045C233.522 67.4621 237.726 66.5909 242.84 66.5909C249.582 66.5909 255.662 68.3144 261.079 71.7614C266.533 75.1705 270.851 80.2273 274.033 86.9318C277.253 93.5985 278.863 101.78 278.863 111.477C278.863 121.061 277.291 129.205 274.147 135.909C271.003 142.614 266.723 147.727 261.306 151.25C255.889 154.773 249.753 156.534 242.897 156.534C237.897 156.534 233.749 155.701 230.454 154.034C227.158 152.367 224.507 150.36 222.499 148.011C220.529 145.625 218.995 143.371 217.897 141.25H216.704V155H196.476ZM216.647 111.364C216.647 117.008 217.442 121.951 219.033 126.193C220.662 130.436 222.991 133.75 226.022 136.136C229.09 138.485 232.802 139.659 237.158 139.659C241.704 139.659 245.51 138.447 248.579 136.023C251.647 133.561 253.957 130.208 255.51 125.966C257.101 121.686 257.897 116.818 257.897 111.364C257.897 105.947 257.12 101.136 255.567 96.9318C254.014 92.7273 251.704 89.4318 248.635 87.0455C245.567 84.6591 241.741 83.4659 237.158 83.4659C232.764 83.4659 229.033 84.6212 225.965 86.9318C222.897 89.2424 220.567 92.4811 218.976 96.6477C217.423 100.814 216.647 105.72 216.647 111.364ZM296.348 155V67.7273H316.917V155H296.348ZM306.689 55.3409C303.432 55.3409 300.629 54.2614 298.28 52.1023C295.932 49.9053 294.758 47.2727 294.758 44.2045C294.758 41.0985 295.932 38.4659 298.28 36.3068C300.629 34.1098 303.432 33.0114 306.689 33.0114C309.985 33.0114 312.788 34.1098 315.098 36.3068C317.447 38.4659 318.621 41.0985 318.621 44.2045C318.621 47.2727 317.447 49.9053 315.098 52.1023C312.788 54.2614 309.985 55.3409 306.689 55.3409ZM407.044 90.7955L388.294 92.8409C387.764 90.947 386.836 89.1667 385.51 87.5C384.223 85.8333 382.48 84.4886 380.283 83.4659C378.086 82.4432 375.397 81.9318 372.215 81.9318C367.935 81.9318 364.336 82.8598 361.419 84.7159C358.541 86.572 357.12 88.9773 357.158 91.9318C357.12 94.4697 358.048 96.5341 359.942 98.125C361.874 99.7159 365.056 101.023 369.488 102.045L384.374 105.227C392.632 107.008 398.768 109.83 402.783 113.693C406.836 117.557 408.882 122.614 408.919 128.864C408.882 134.356 407.272 139.205 404.09 143.409C400.946 147.576 396.571 150.833 390.965 153.182C385.359 155.53 378.919 156.705 371.647 156.705C360.965 156.705 352.366 154.47 345.851 150C339.336 145.492 335.454 139.223 334.204 131.193L354.26 129.261C355.169 133.201 357.101 136.174 360.056 138.182C363.01 140.189 366.855 141.193 371.59 141.193C376.476 141.193 380.397 140.189 383.351 138.182C386.344 136.174 387.84 133.693 387.84 130.739C387.84 128.239 386.874 126.174 384.942 124.545C383.048 122.917 380.094 121.667 376.079 120.795L361.192 117.67C352.821 115.928 346.628 112.992 342.613 108.864C338.598 104.697 336.609 99.4318 336.647 93.0682C336.609 87.6894 338.067 83.0303 341.022 79.0909C344.014 75.1136 348.162 72.0455 353.465 69.8864C358.806 67.6894 364.961 66.5909 371.931 66.5909C382.158 66.5909 390.207 68.7689 396.079 73.125C401.988 77.4811 405.643 83.3712 407.044 90.7955ZM463.948 156.705C455.236 156.705 447.755 154.792 441.505 150.966C435.293 147.14 430.501 141.856 427.13 135.114C423.796 128.333 422.13 120.53 422.13 111.705C422.13 102.841 423.834 95.0189 427.243 88.2386C430.652 81.4205 435.463 76.1174 441.675 72.3295C447.925 68.5038 455.312 66.5909 463.834 66.5909C470.918 66.5909 477.187 67.8977 482.641 70.5114C488.133 73.0871 492.508 76.7424 495.766 81.4773C499.024 86.1742 500.88 91.6667 501.334 97.9545H481.675C480.88 93.75 478.986 90.2462 475.993 87.4432C473.039 84.6023 469.08 83.1818 464.118 83.1818C459.914 83.1818 456.221 84.3182 453.039 86.5909C449.857 88.8258 447.376 92.0455 445.596 96.25C443.853 100.455 442.982 105.492 442.982 111.364C442.982 117.311 443.853 122.424 445.596 126.705C447.338 130.947 449.781 134.223 452.925 136.534C456.107 138.807 459.838 139.943 464.118 139.943C467.149 139.943 469.857 139.375 472.243 138.239C474.668 137.064 476.694 135.379 478.323 133.182C479.952 130.985 481.069 128.314 481.675 125.17H501.334C500.842 131.345 499.024 136.818 495.88 141.591C492.736 146.326 488.455 150.038 483.039 152.727C477.622 155.379 471.258 156.705 463.948 156.705ZM543.337 156.761C537.807 156.761 532.826 155.777 528.394 153.807C524 151.799 520.515 148.845 517.939 144.943C515.401 141.042 514.133 136.231 514.133 130.511C514.133 125.587 515.042 121.515 516.86 118.295C518.678 115.076 521.159 112.5 524.303 110.568C527.447 108.636 530.989 107.178 534.928 106.193C538.905 105.17 543.015 104.432 547.258 103.977C552.371 103.447 556.519 102.973 559.701 102.557C562.883 102.102 565.193 101.42 566.633 100.511C568.11 99.5644 568.848 98.1061 568.848 96.1364V95.7955C568.848 91.5152 567.58 88.2008 565.042 85.8523C562.504 83.5038 558.848 82.3295 554.076 82.3295C549.038 82.3295 545.042 83.428 542.087 85.625C539.17 87.822 537.201 90.4167 536.178 93.4091L516.973 90.6818C518.489 85.3788 520.989 80.947 524.473 77.3864C527.958 73.7879 532.22 71.0985 537.258 69.3182C542.295 67.5 547.864 66.5909 553.962 66.5909C558.167 66.5909 562.352 67.0833 566.519 68.0682C570.686 69.053 574.492 70.6818 577.939 72.9545C581.386 75.1894 584.151 78.2386 586.235 82.1023C588.356 85.9659 589.417 90.7955 589.417 96.5909V155H569.644V143.011H568.962C567.712 145.436 565.951 147.708 563.678 149.83C561.443 151.913 558.621 153.598 555.212 154.886C551.841 156.136 547.883 156.761 543.337 156.761ZM548.678 141.648C552.807 141.648 556.386 140.833 559.417 139.205C562.447 137.538 564.776 135.341 566.405 132.614C568.072 129.886 568.905 126.913 568.905 123.693V113.409C568.261 113.939 567.163 114.432 565.61 114.886C564.095 115.341 562.39 115.739 560.496 116.08C558.602 116.42 556.727 116.723 554.871 116.989C553.015 117.254 551.405 117.481 550.042 117.67C546.973 118.087 544.227 118.769 541.803 119.716C539.379 120.663 537.466 121.989 536.064 123.693C534.663 125.36 533.962 127.519 533.962 130.17C533.962 133.958 535.345 136.818 538.11 138.75C540.875 140.682 544.398 141.648 548.678 141.648ZM653.678 67.7273V83.6364H603.508V67.7273H653.678ZM615.894 46.8182H636.462V128.75C636.462 131.515 636.879 133.636 637.712 135.114C638.583 136.553 639.72 137.538 641.121 138.068C642.523 138.598 644.076 138.864 645.78 138.864C647.068 138.864 648.242 138.769 649.303 138.58C650.401 138.39 651.235 138.22 651.803 138.068L655.269 154.148C654.17 154.527 652.598 154.943 650.553 155.398C648.545 155.852 646.083 156.117 643.167 156.193C638.015 156.345 633.375 155.568 629.246 153.864C625.117 152.121 621.841 149.432 619.417 145.795C617.03 142.159 615.856 137.614 615.894 132.159V46.8182ZM708.01 156.705C699.488 156.705 692.101 154.83 685.851 151.08C679.601 147.33 674.753 142.083 671.306 135.341C667.897 128.598 666.192 120.72 666.192 111.705C666.192 102.689 667.897 94.7917 671.306 88.0114C674.753 81.2311 679.601 75.9659 685.851 72.2159C692.101 68.4659 699.488 66.5909 708.01 66.5909C716.533 66.5909 723.919 68.4659 730.169 72.2159C736.419 75.9659 741.249 81.2311 744.658 88.0114C748.105 94.7917 749.829 102.689 749.829 111.705C749.829 120.72 748.105 128.598 744.658 135.341C741.249 142.083 736.419 147.33 730.169 151.08C723.919 154.83 716.533 156.705 708.01 156.705ZM708.124 140.227C712.745 140.227 716.609 138.958 719.715 136.42C722.821 133.845 725.132 130.398 726.647 126.08C728.2 121.761 728.976 116.951 728.976 111.648C728.976 106.307 728.2 101.477 726.647 97.1591C725.132 92.803 722.821 89.3371 719.715 86.7614C716.609 84.1856 712.745 82.8977 708.124 82.8977C703.389 82.8977 699.45 84.1856 696.306 86.7614C693.2 89.3371 690.87 92.803 689.317 97.1591C687.802 101.477 687.044 106.307 687.044 111.648C687.044 116.951 687.802 121.761 689.317 126.08C690.87 130.398 693.2 133.845 696.306 136.42C699.45 138.958 703.389 140.227 708.124 140.227Z" />
</svg>
