<svg viewBox="0 0 24 24" fill="none" xmlns="http://www.w3.org/2000/svg">
<g clip-path="url(#clip0_403_3217)">

<path d="M12.0002 5.00012C11.735 5.00012 11.4806 5.10548 11.2931 5.29302C11.1055 5.48055 11.0002 5.73491 11.0002 6.00012V14.0001C11.0002 14.2653 11.1055 14.5197 11.2931 14.7072C11.4806 14.8948 11.735 15.0001 12.0002 15.0001C12.2654 15.0001 12.5198 14.8948 12.7073 14.7072C12.8948 14.5197 13.0002 14.2653 13.0002 14.0001V6.00012C13.0002 5.73491 12.8948 5.48055 12.7073 5.29302C12.5198 5.10548 12.2654 5.00012 12.0002 5.00012Z"/>
<path d="M13.0002 18.0001C13.0002 17.4478 12.5525 17.0001 12.0002 17.0001C11.4479 17.0001 11.0002 17.4478 11.0002 18.0001C11.0002 18.5524 11.4479 19.0001 12.0002 19.0001C12.5525 19.0001 13.0002 18.5524 13.0002 18.0001Z" />
</g>
<defs>
<clipPath id="clip0_403_3217">
<rect width="24" height="24" fill="white"/>
</clipPath>
</defs>
</svg>
